/* XPM */
static char * eject_xpm[] = {
"12 9 55 1",
" 	c None",
".	c #ECE9E7",
"+	c #E5E0DD",
"@	c #D5CFCB",
"#	c #D5CDC9",
"$	c #D5CECB",
"%	c #D6CECA",
"&	c #CCC5C1",
"*	c #AFA7A8",
"=	c #E0DCDA",
"-	c #D5CFCC",
";	c #BAB1AE",
">	c #BAB2AE",
",	c #BCB2AE",
"'	c #AFA7A2",
")	c #5F5754",
"!	c #C3BEBC",
"~	c #ACA7A4",
"{	c #9B9491",
"]	c #9B928E",
"^	c #000000",
"/	c #9D9492",
"(	c #9D9792",
"_	c #7F7773",
":	c #191818",
"<	c #C0BBB9",
"[	c #A8A19E",
"}	c #948C89",
"|	c #938A88",
"1	c #8A8481",
"2	c #99918E",
"3	c #776E6C",
"4	c #BCB7B5",
"5	c #A29D9A",
"6	c #8F8884",
"7	c #877F7E",
"8	c #736C68",
"9	c #AEABA8",
"0	c #8F8A89",
"a	c #787270",
"b	c #7E7877",
"c	c #787572",
"d	c #7A7371",
"e	c #ABA6A5",
"f	c #8A8584",
"g	c #726B6A",
"h	c #736D6B",
"i	c #585150",
"j	c #9E9B9A",
"k	c #7C7776",
"l	c #524E4A",
"m	c #544F4D",
"n	c #524D4A",
"o	c #4A4645",
"p	c #848181",
".+@##$@@@%&*",
"=-;>;;>>;,')",
"!~{]]^]//(_:",
"<[}|^^^1123:",
"456^^^^^778:",
"90aaabbbcd):",
"efg^^^^^hhi:",
"jklllmmmnno:",
"p)::::::::::"};
