/* XPM */
static char * next_xpm[] = {
"12 9 54 1",
" 	c None",
".	c #ECE9E7",
"+	c #E5E0DD",
"@	c #D5CFCB",
"#	c #D5CDC9",
"$	c #D5CECB",
"%	c #D6CECA",
"&	c #CCC5C1",
"*	c #AFA7A8",
"=	c #E0DCDA",
"-	c #D5CFCC",
";	c #BAB1AE",
">	c #BAB2AE",
",	c #BCB2AE",
"'	c #AFA7A2",
")	c #5F5754",
"!	c #C3BEBC",
"~	c #ACA7A4",
"{	c #9B9491",
"]	c #000000",
"^	c #9B928E",
"/	c #9D9492",
"(	c #9D9792",
"_	c #7F7773",
":	c #191818",
"<	c #C0BBB9",
"[	c #A8A19E",
"}	c #948C89",
"|	c #8A8481",
"1	c #99918E",
"2	c #776E6C",
"3	c #BCB7B5",
"4	c #A29D9A",
"5	c #8F8884",
"6	c #877F7E",
"7	c #736C68",
"8	c #AEABA8",
"9	c #8F8A89",
"0	c #787270",
"a	c #7E7877",
"b	c #787572",
"c	c #7A7371",
"d	c #ABA6A5",
"e	c #8A8584",
"f	c #726B6A",
"g	c #736D6B",
"h	c #585150",
"i	c #9E9B9A",
"j	c #7C7776",
"k	c #524E4A",
"l	c #544F4D",
"m	c #524D4A",
"n	c #4A4645",
"o	c #848181",
".+@##$@@@%&*",
"=-;>;;>>;,')",
"!~{]^]^//(_:",
"<[}]|]]||12:",
"345]|]]]667:",
"890]0]]abc):",
"def]f]ffggh:",
"ijkkklllmmn:",
"o)::::::::::"};
