/* XPM */
static char * next_clicked_xpm[] = {
"12 9 55 1",
" 	c None",
".	c #191818",
"+	c #5F5754",
"@	c #848181",
"#	c #4A4645",
"$	c #524D4A",
"%	c #544F4D",
"&	c #524E4A",
"*	c #7C7776",
"=	c #9E9B9A",
"-	c #585150",
";	c #736D6B",
">	c #000000",
",	c #726B6A",
"'	c #8A8584",
")	c #ABA6A5",
"!	c #7A7371",
"~	c #7E7877",
"{	c #787270",
"]	c #8F8A89",
"^	c #AEABA8",
"/	c #736C68",
"(	c #877F7E",
"_	c #8A8481",
":	c #8D8884",
"<	c #8F8884",
"[	c #A29D9A",
"}	c #BCB7B5",
"|	c #776E6C",
"1	c #99918E",
"2	c #938A88",
"3	c #948C89",
"4	c #A8A19E",
"5	c #C0BBB9",
"6	c #7F7773",
"7	c #9D9792",
"8	c #9D9492",
"9	c #9B928E",
"0	c #9B9491",
"a	c #ACA7A4",
"b	c #C3BEBC",
"c	c #AFA7A2",
"d	c #BCB2AE",
"e	c #BAB1AE",
"f	c #BAB2AE",
"g	c #D5CFCC",
"h	c #E0DCDA",
"i	c #AFA7A8",
"j	c #CCC5C1",
"k	c #D6CECA",
"l	c #D5CFCB",
"m	c #D5CECB",
"n	c #D5CDC9",
"o	c #E5E0DD",
"p	c #ECE9E7",
"..........+@",
".#$$%%%&&&*=",
".-;>,>,,,,')",
".+!>~>>{{{]^",
"./(>_>>>:<[}",
".|1>_>>_2345",
".67>8>9990ab",
"+cdeffeefegh",
"ijklllmnnlop"};
