/* XPM */
static char * play_pause_xpm[] = {
"12 9 50 1",
" 	c None",
".	c #ECE9E7",
"+	c #E5E0DD",
"@	c #D5CFCB",
"#	c #D5CDC9",
"$	c #D5CECB",
"%	c #D6CECA",
"&	c #CCC5C1",
"*	c #AFA7A8",
"=	c #E0DCDA",
"-	c #D5CFCC",
";	c #BAB1AE",
">	c #BAB2AE",
",	c #BCB2AE",
"'	c #AFA7A2",
")	c #5F5754",
"!	c #C3BEBC",
"~	c #ACA7A4",
"{	c #000000",
"]	c #9B928E",
"^	c #9D9492",
"/	c #9D9792",
"(	c #7F7773",
"_	c #191818",
":	c #C0BBB9",
"<	c #A8A19E",
"[	c #8A8481",
"}	c #99918E",
"|	c #776E6C",
"1	c #BCB7B5",
"2	c #A29D9A",
"3	c #877F7E",
"4	c #736C68",
"5	c #AEABA8",
"6	c #8F8A89",
"7	c #787270",
"8	c #7E7877",
"9	c #7A7371",
"0	c #ABA6A5",
"a	c #8A8584",
"b	c #726B6A",
"c	c #736D6B",
"d	c #585150",
"e	c #9E9B9A",
"f	c #7C7776",
"g	c #524E4A",
"h	c #544F4D",
"i	c #524D4A",
"j	c #4A4645",
"k	c #848181",
".+@##$@@@%&*",
"=-;>;;>>;,')",
"!~{]]]{^{/(_",
":<{{[[{[{}|_",
"12{{{[{[{34_",
"56{{78{8{9)_",
"0a{bbb{b{cd_",
"efggghhhiij_",
"k)__________"};
