/* XPM */
static char * play_pause_clicked_xpm[] = {
"12 9 49 1",
" 	c None",
".	c #191818",
"+	c #5F5754",
"@	c #848181",
"#	c #4A4645",
"$	c #524D4A",
"%	c #544F4D",
"&	c #524E4A",
"*	c #7C7776",
"=	c #9E9B9A",
"-	c #585150",
";	c #000000",
">	c #736D6B",
",	c #726B6A",
"'	c #8A8584",
")	c #ABA6A5",
"!	c #7E7877",
"~	c #787270",
"{	c #8F8A89",
"]	c #AEABA8",
"^	c #736C68",
"/	c #8A8481",
"(	c #8F8884",
"_	c #A29D9A",
":	c #BCB7B5",
"<	c #776E6C",
"[	c #948C89",
"}	c #A8A19E",
"|	c #C0BBB9",
"1	c #7F7773",
"2	c #9D9492",
"3	c #9B928E",
"4	c #9B9491",
"5	c #ACA7A4",
"6	c #C3BEBC",
"7	c #AFA7A2",
"8	c #BCB2AE",
"9	c #BAB1AE",
"0	c #BAB2AE",
"a	c #D5CFCC",
"b	c #E0DCDA",
"c	c #AFA7A8",
"d	c #CCC5C1",
"e	c #D6CECA",
"f	c #D5CFCB",
"g	c #D5CECB",
"h	c #D5CDC9",
"i	c #E5E0DD",
"j	c #ECE9E7",
"..........+@",
".#$$%%%&&&*=",
".-;>,,;,;,')",
".+;;!!;~;~{]",
".^;;;/;/;(_:",
".<;;//;/;[}|",
".1;223;3;456",
"+789009909ab",
"cdefffghhfij"};
