/* XPM */
static char * prev_clicked_xpm[] = {
"12 9 56 1",
" 	c None",
".	c #191818",
"+	c #5F5754",
"@	c #848181",
"#	c #4A4645",
"$	c #524D4A",
"%	c #544F4D",
"&	c #524E4A",
"*	c #7C7776",
"=	c #9E9B9A",
"-	c #585150",
";	c #736D6B",
">	c #726B6A",
",	c #000000",
"'	c #8A8584",
")	c #ABA6A5",
"!	c #7A7371",
"~	c #787572",
"{	c #7E7877",
"]	c #787270",
"^	c #8F8A89",
"/	c #AEABA8",
"(	c #736C68",
"_	c #877F7E",
":	c #8A8481",
"<	c #8D8884",
"[	c #8F8884",
"}	c #A29D9A",
"|	c #BCB7B5",
"1	c #776E6C",
"2	c #99918E",
"3	c #938A88",
"4	c #948C89",
"5	c #A8A19E",
"6	c #C0BBB9",
"7	c #7F7773",
"8	c #9D9792",
"9	c #9D9492",
"0	c #9B928E",
"a	c #9B9491",
"b	c #ACA7A4",
"c	c #C3BEBC",
"d	c #AFA7A2",
"e	c #BCB2AE",
"f	c #BAB1AE",
"g	c #BAB2AE",
"h	c #D5CFCC",
"i	c #E0DCDA",
"j	c #AFA7A8",
"k	c #CCC5C1",
"l	c #D6CECA",
"m	c #D5CFCB",
"n	c #D5CECB",
"o	c #D5CDC9",
"p	c #E5E0DD",
"q	c #ECE9E7",
"..........+@",
".#$$%%%&&&*=",
".-;;>,>,>>')",
".+!~,,{,]]^/",
".(_,,,:,<[}|",
".12:,,:,3456",
".7899,0,0abc",
"+defggffgfhi",
"jklmmmnoompq"};
