/* XPM */
static char * prev_xpm[] = {
"12 9 56 1",
" 	c None",
".	c #ECE9E7",
"+	c #E5E0DD",
"@	c #D5CFCB",
"#	c #D5CDC9",
"$	c #D5CECB",
"%	c #D6CECA",
"&	c #CCC5C1",
"*	c #AFA7A8",
"=	c #E0DCDA",
"-	c #D5CFCC",
";	c #BAB1AE",
">	c #BAB2AE",
",	c #BCB2AE",
"'	c #AFA7A2",
")	c #5F5754",
"!	c #C3BEBC",
"~	c #ACA7A4",
"{	c #9B9491",
"]	c #99908C",
"^	c #9B928E",
"/	c #000000",
"(	c #9D9492",
"_	c #9D9792",
":	c #7F7773",
"<	c #191818",
"[	c #C0BBB9",
"}	c #A8A19E",
"|	c #948C89",
"1	c #938A88",
"2	c #8A8481",
"3	c #99918E",
"4	c #776E6C",
"5	c #BCB7B5",
"6	c #A29D9A",
"7	c #8F8884",
"8	c #877F7E",
"9	c #736C68",
"0	c #AEABA8",
"a	c #8F8A89",
"b	c #787270",
"c	c #7E7877",
"d	c #787572",
"e	c #7A7371",
"f	c #ABA6A5",
"g	c #8A8584",
"h	c #726B6A",
"i	c #736D6B",
"j	c #585150",
"k	c #9E9B9A",
"l	c #7C7776",
"m	c #524E4A",
"n	c #544F4D",
"o	c #524D4A",
"p	c #4A4645",
"q	c #848181",
".+@##$@@@%&*",
"=-;>;;>>;,')",
"!~{]^/^/(_:<",
"[}|1//2/234<",
"567///2/889<",
"0abb//c/de)<",
"fghhh/h/iij<",
"klmmmnnnoop<",
"q)<<<<<<<<<<"};
