/* XPM */
static char * stop_clicked_xpm[] = {
"12 9 52 1",
" 	c None",
".	c #191818",
"+	c #5F5754",
"@	c #848181",
"#	c #4A4645",
"$	c #524D4A",
"%	c #544F4D",
"&	c #524E4A",
"*	c #7C7776",
"=	c #9E9B9A",
"-	c #585150",
";	c #736D6B",
">	c #000000",
",	c #726B6A",
"'	c #8A8584",
")	c #ABA6A5",
"!	c #7A7371",
"~	c #787270",
"{	c #8F8A89",
"]	c #AEABA8",
"^	c #736C68",
"/	c #877F7E",
"(	c #8D8884",
"_	c #8F8884",
":	c #A29D9A",
"<	c #BCB7B5",
"[	c #776E6C",
"}	c #99918E",
"|	c #938A88",
"1	c #948C89",
"2	c #A8A19E",
"3	c #C0BBB9",
"4	c #7F7773",
"5	c #9D9792",
"6	c #9B928E",
"7	c #9B9491",
"8	c #ACA7A4",
"9	c #C3BEBC",
"0	c #AFA7A2",
"a	c #BCB2AE",
"b	c #BAB1AE",
"c	c #BAB2AE",
"d	c #D5CFCC",
"e	c #E0DCDA",
"f	c #AFA7A8",
"g	c #CCC5C1",
"h	c #D6CECA",
"i	c #D5CFCB",
"j	c #D5CECB",
"k	c #D5CDC9",
"l	c #E5E0DD",
"m	c #ECE9E7",
"..........+@",
".#$$%%%&&&*=",
".-;>>>>>,,')",
".+!>>>>>~~{]",
".^/>>>>>(_:<",
".[}>>>>>|123",
".45>>>>>6789",
"+0abccbbcbde",
"fghiiijkkilm"};
