/* XPM */
static char * stop_xpm[] = {
"12 9 52 1",
" 	c None",
".	c #ECE9E7",
"+	c #E5E0DD",
"@	c #D5CFCB",
"#	c #D5CDC9",
"$	c #D5CECB",
"%	c #D6CECA",
"&	c #CCC5C1",
"*	c #AFA7A8",
"=	c #E0DCDA",
"-	c #D5CFCC",
";	c #BAB1AE",
">	c #BAB2AE",
",	c #BCB2AE",
"'	c #AFA7A2",
")	c #5F5754",
"!	c #C3BEBC",
"~	c #ACA7A4",
"{	c #9B9491",
"]	c #000000",
"^	c #9D9492",
"/	c #9D9792",
"(	c #7F7773",
"_	c #191818",
":	c #C0BBB9",
"<	c #A8A19E",
"[	c #948C89",
"}	c #8A8481",
"|	c #99918E",
"1	c #776E6C",
"2	c #BCB7B5",
"3	c #A29D9A",
"4	c #8F8884",
"5	c #877F7E",
"6	c #736C68",
"7	c #AEABA8",
"8	c #8F8A89",
"9	c #787270",
"0	c #787572",
"a	c #7A7371",
"b	c #ABA6A5",
"c	c #8A8584",
"d	c #726B6A",
"e	c #736D6B",
"f	c #585150",
"g	c #9E9B9A",
"h	c #7C7776",
"i	c #524E4A",
"j	c #544F4D",
"k	c #524D4A",
"l	c #4A4645",
"m	c #848181",
".+@##$@@@%&*",
"=-;>;;>>;,')",
"!~{]]]]]^/(_",
":<[]]]]]}|1_",
"234]]]]]556_",
"789]]]]]0a)_",
"bcd]]]]]eef_",
"ghiiijjjkkl_",
"m)__________"};
